<?xml version="1.0" standalone="no"?>
<!DOCTYPE svg PUBLIC "-//W3C//DTD SVG 20010904//EN"
 "http://www.w3.org/TR/2001/REC-SVG-20010904/DTD/svg10.dtd">
<svg version="1.0" xmlns="http://www.w3.org/2000/svg"
 width="512.000000pt" height="512.000000pt" viewBox="0 0 512.000000 512.000000"
 preserveAspectRatio="xMidYMid meet">

<g transform="translate(0.000000,512.000000) scale(0.100000,-0.100000)"
fill="#000000" stroke="none">
<path d="M2430 4905 c0 -2 21 -16 47 -31 39 -24 43 -29 27 -35 -10 -4 -14 -8
-9 -9 6 0 26 -15 45 -31 24 -22 29 -29 15 -25 -72 20 -74 13 -5 -23 41 -22 69
-40 62 -41 -7 0 -21 4 -31 9 -25 14 -172 40 -165 30 3 -5 11 -9 19 -9 7 0 57
-22 111 -50 54 -27 94 -50 91 -50 -4 0 -36 11 -72 25 -36 13 -65 21 -65 17 0
-4 24 -16 53 -27 32 -11 45 -20 34 -23 -12 -2 -3 -11 32 -30 50 -27 113 -92
90 -92 -6 0 9 -21 34 -47 59 -59 66 -107 11 -68 -12 8 -24 12 -27 8 -4 -3 -13
0 -22 7 -26 22 -16 -1 24 -54 41 -55 56 -86 41 -86 -6 0 -5 -11 1 -27 11 -30
17 -70 23 -166 3 -33 9 -71 16 -86 8 -20 9 -66 2 -160 -11 -168 -28 -192 -24
-34 4 150 -15 240 -67 320 -47 71 -199 239 -272 300 -61 50 -271 157 -338 172
-42 9 -47 -2 -6 -12 15 -4 13 -5 -7 -6 -16 0 -28 -6 -28 -12 0 -8 13 -9 38 -4
47 8 32 -6 -30 -29 -53 -19 -138 -78 -122 -83 6 -2 49 14 95 37 90 43 121 51
99 25 -11 -13 -10 -14 4 -9 12 5 15 2 10 -10 -5 -14 -2 -16 22 -11 23 5 17 -1
-26 -28 -147 -92 -176 -128 -47 -57 41 22 92 43 112 45 20 3 42 8 48 12 6 3 7
1 3 -5 -4 -7 -2 -12 4 -12 6 0 -2 -12 -17 -26 l-28 -25 27 4 c15 2 25 0 22 -4
-7 -12 18 -11 53 1 28 10 28 9 6 -6 -33 -24 -30 -46 5 -39 26 6 26 6 8 -9 -26
-21 -20 -25 42 -28 42 -2 49 -5 36 -15 -17 -12 -12 -17 36 -40 24 -11 24 -11
-11 -12 -20 -1 -51 -4 -69 -8 -26 -5 -31 -3 -25 7 6 10 2 12 -16 7 -65 -18
-97 -19 -128 -2 -18 9 -35 14 -37 12 -3 -2 9 -10 25 -16 32 -14 41 -34 41 -98
0 -24 5 -43 10 -43 6 0 10 -11 10 -25 0 -42 19 -28 23 18 l4 42 1 -47 c2 -57
22 -75 23 -21 0 30 2 34 9 18 5 -11 11 -36 14 -55 9 -52 21 -67 40 -51 14 12
16 10 16 -12 0 -41 18 -41 26 0 11 65 23 73 24 16 0 -28 5 -55 10 -58 6 -4 10
7 10 27 0 23 3 29 9 19 10 -16 31 -6 31 14 0 8 4 17 10 20 6 4 7 -6 4 -24 -4
-17 -3 -38 1 -48 7 -17 8 -17 16 2 6 14 7 7 3 -21 -7 -50 10 -66 25 -24 12 34
22 41 13 8 -4 -17 -2 -20 12 -15 12 5 16 2 14 -11 -2 -9 3 -16 10 -15 7 2 12
-7 12 -20 0 -18 2 -19 11 -7 8 11 9 6 4 -20 -6 -33 -5 -34 9 -16 15 18 16 18
35 -5 29 -34 26 -49 -8 -49 -16 0 -31 -4 -33 -9 -1 -6 -26 19 -55 53 -47 58
-63 70 -190 134 -76 38 -167 82 -202 97 l-63 26 -177 -11 c-279 -17 -305 -22
-446 -86 -69 -32 -123 -59 -121 -61 2 -3 18 3 35 11 40 21 48 20 26 -4 -14
-16 -15 -20 -4 -20 8 0 23 6 34 13 11 8 34 22 50 32 l30 17 -30 -23 c-60 -48
-96 -82 -90 -87 3 -3 26 13 52 35 27 22 62 48 78 58 l30 19 -17 -20 c-32 -37
-19 -39 19 -3 34 31 35 32 20 7 -10 -16 -14 -28 -10 -28 4 0 20 12 36 28 33
30 29 20 -19 -48 -32 -46 -64 -103 -64 -116 0 -4 18 17 39 48 22 30 56 67 76
83 l37 28 -17 -27 c-27 -41 -11 -42 21 -1 15 20 36 41 47 47 14 7 10 -2 -13
-30 -18 -22 -30 -46 -28 -53 2 -6 21 11 41 40 20 28 42 51 48 51 6 0 -3 -19
-20 -42 -52 -71 -34 -66 39 11 79 83 108 91 35 9 -45 -50 -82 -114 -72 -125 3
-2 19 16 36 41 30 43 85 93 143 129 15 9 29 17 31 17 1 0 -28 -31 -65 -69 -37
-39 -68 -75 -68 -82 0 -7 16 6 36 29 20 23 45 47 56 53 20 11 20 10 4 -12 -22
-31 -20 -46 2 -26 20 19 37 23 27 7 -11 -18 8 -11 33 13 18 16 26 18 29 9 4
-10 8 -10 21 0 10 7 14 9 10 4 -8 -9 13 -36 24 -30 3 2 4 -5 1 -16 -8 -30 7
-24 56 23 44 42 44 42 13 4 -50 -60 -39 -82 14 -26 16 17 38 35 49 41 11 6 2
-8 -19 -31 -38 -39 -45 -69 -9 -40 15 12 16 12 10 -3 -9 -25 2 -22 37 10 17
15 24 19 17 9 -17 -22 -9 -33 9 -12 11 14 14 14 25 -1 9 -14 16 -14 33 -5 16
9 22 9 22 0 0 -6 7 -9 15 -5 8 3 15 1 15 -4 0 -6 8 -10 18 -10 26 0 33 -10 21
-31 -13 -24 -10 -24 45 7 26 15 53 23 63 19 27 -9 98 -105 79 -105 -9 0 -16
-8 -16 -20 0 -17 -5 -16 -52 13 l-51 32 -141 -1 c-220 -1 -268 -15 -535 -147
l-225 -112 -92 -114 c-87 -107 -161 -237 -178 -311 l-6 -25 12 25 c81 172 102
210 118 225 15 14 12 0 -16 -66 -38 -93 -69 -188 -55 -174 5 6 16 35 26 65 23
71 67 157 100 195 15 18 22 22 17 10 -35 -72 -102 -338 -89 -351 2 -3 10 24
17 58 15 77 60 222 66 215 3 -3 -2 -33 -11 -67 -9 -34 -14 -67 -13 -72 4 -12
47 144 55 199 3 18 11 37 18 43 14 12 13 0 -12 -118 -23 -112 -11 -94 21 29
16 60 32 111 36 114 3 2 -4 -51 -17 -118 -31 -158 -42 -246 -33 -277 4 -16 9
6 13 65 8 114 35 220 81 315 20 41 34 66 30 55 -16 -53 -34 -154 -33 -185 1
-24 4 -17 10 25 10 75 29 147 41 160 9 10 5 -40 -13 -160 -11 -75 -11 -146 0
-163 5 -8 11 29 14 90 4 57 11 119 17 138 8 30 9 25 5 -30 -3 -57 -2 -53 11
30 9 52 19 104 24 115 8 16 8 14 4 -8 -4 -15 -2 -44 2 -65 8 -36 9 -35 14 28
l7 65 1 -75 c3 -110 21 -126 23 -20 l2 85 7 -76 c13 -132 54 -164 45 -36 -2
40 -2 63 1 52 3 -11 10 -37 15 -58 11 -43 29 -40 29 5 0 26 2 29 15 18 13 -11
15 -3 15 61 0 41 5 81 11 89 7 11 9 -4 4 -51 -6 -67 8 -107 19 -52 21 112 29
141 42 163 14 24 15 22 9 -35 -3 -32 -8 -70 -12 -84 -4 -15 -2 -22 5 -18 5 4
15 29 22 56 6 28 18 55 26 62 12 9 11 4 -1 -37 -8 -26 -12 -50 -10 -52 3 -3 6
1 9 9 2 8 11 35 21 62 19 52 39 65 24 15 -8 -29 -1 -57 8 -32 8 24 64 106 69
102 2 -3 0 -17 -5 -32 -17 -43 -2 -30 18 17 10 23 28 51 40 61 24 22 27 12 6
-24 -25 -44 -16 -45 25 -5 22 21 40 34 40 28 0 -17 -60 -74 -74 -71 -17 4
-214 -196 -317 -322 -88 -107 -235 -303 -282 -375 -25 -39 -133 -362 -124
-372 3 -2 15 22 26 54 49 131 95 243 99 239 2 -3 -2 -30 -8 -61 -18 -85 -6
-76 24 17 28 90 69 182 62 138 -3 -14 -17 -70 -31 -125 -26 -103 -44 -243 -27
-215 5 8 12 44 15 80 7 75 47 220 84 303 27 60 41 72 22 19 -6 -17 -9 -43 -7
-59 2 -21 8 -10 22 45 10 40 23 75 28 78 6 4 8 -1 4 -12 -21 -69 -35 -171 -31
-235 3 -55 2 -64 -4 -34 l-8 40 -1 -50 c0 -27 3 -61 8 -75 7 -23 8 -23 15 14
4 21 5 75 2 120 -3 48 -2 71 3 56 7 -22 8 -20 9 15 1 22 9 78 18 125 l18 85 6
-110 c4 -80 11 -122 27 -155 l20 -45 3 180 2 180 8 -107 c5 -58 15 -121 23
-140 l14 -33 1 35 c0 19 -4 75 -9 124 -5 55 -6 95 0 105 8 14 9 14 10 -2 0
-32 61 -177 86 -205 l23 -27 1 24 c0 13 -9 73 -21 133 -11 60 -19 111 -16 114
2 2 12 -22 22 -55 18 -60 58 -122 70 -109 4 4 0 39 -9 77 -10 47 -12 78 -6 93
7 19 9 20 9 5 1 -16 3 -17 16 -3 8 8 15 22 15 32 0 16 2 15 21 -2 l22 -19 -6
48 c-4 28 -3 47 3 47 6 0 11 24 11 53 1 33 4 41 6 22 9 -65 22 -45 17 26 -4
54 -3 70 5 59 6 -8 11 -24 11 -36 0 -30 20 -84 31 -84 5 0 6 41 3 99 -4 61 -3
100 3 104 6 4 12 -27 16 -81 10 -143 47 -212 47 -89 1 63 22 192 33 204 4 3 7
-19 7 -50 0 -72 15 -74 26 -4 l8 52 3 -50 c4 -66 11 -95 23 -95 6 0 10 13 10
30 0 35 30 118 55 151 14 19 16 20 10 4 -36 -95 -56 -158 -51 -162 2 -3 14 18
26 45 17 40 31 55 63 71 22 11 42 19 44 17 2 -2 -22 -26 -52 -55 -62 -56 -64
-62 -11 -30 59 34 44 2 -30 -68 -37 -35 -63 -63 -59 -63 5 0 18 8 29 18 l21
17 -20 -24 c-11 -13 -57 -55 -103 -93 -46 -39 -86 -78 -89 -87 -3 -9 -38 -49
-77 -88 -100 -103 -74 -91 36 17 50 49 95 90 100 90 20 0 3 -23 -57 -76 -36
-31 -64 -59 -61 -61 9 -9 52 20 105 71 42 40 49 44 32 19 -31 -45 -9 -42 26 3
15 20 37 46 48 58 11 12 17 17 13 12 -19 -24 -6 -27 19 -5 52 47 -321 -486
-487 -696 -195 -247 -521 -759 -686 -1080 -54 -104 -102 -217 -139 -325 -31
-90 -115 -300 -185 -465 -71 -165 -132 -312 -135 -326 -6 -22 -2 -28 27 -40
19 -8 66 -13 109 -13 110 1 163 29 206 109 68 126 149 352 352 980 44 133 95
269 132 345 96 200 272 494 407 682 218 303 303 447 480 818 l12 25 -5 -27
c-3 -16 -1 -28 5 -28 5 0 10 5 10 12 0 6 3 8 7 5 3 -4 5 -60 4 -126 -1 -73 2
-121 8 -125 13 -8 20 18 30 110 7 54 9 60 10 27 1 -59 21 -54 23 5 l1 47 7
-40 c7 -34 7 -32 5 18 -2 32 1 55 6 51 5 -3 9 -18 9 -35 0 -58 20 -27 21 34 1
34 4 51 6 37 7 -39 23 -49 23 -14 0 22 3 26 10 14 8 -12 10 -11 10 6 0 11 9
29 21 40 12 10 34 44 49 75 16 30 36 62 46 70 15 13 16 12 10 -11 -4 -14 -30
-64 -57 -111 -47 -83 -60 -117 -40 -104 6 3 31 41 57 85 26 44 49 78 52 76 2
-3 -22 -50 -53 -106 -61 -108 -72 -148 -15 -52 45 74 80 122 91 122 23 0 -180
-319 -260 -408 -60 -68 -106 -132 -94 -132 8 0 31 26 112 130 78 100 126 146
136 129 6 -8 4 -10 -5 -4 -10 6 -12 4 -7 -9 4 -9 3 -15 -1 -12 -4 2 -8 -9 -9
-26 l-2 -30 17 24 c10 12 31 44 46 71 48 83 49 50 1 -38 -48 -88 -56 -119 -10
-41 14 24 33 50 42 57 24 21 -40 -101 -137 -256 -89 -144 -114 -188 -83 -145
10 13 51 69 91 125 85 116 85 116 77 90 -6 -18 -5 -18 7 -3 7 9 19 25 26 35 7
10 -12 -30 -43 -89 -31 -60 -51 -108 -45 -108 6 0 -1 -20 -16 -45 -42 -73 -20
-52 40 38 30 45 67 96 81 112 23 27 25 27 14 5 -7 -14 -28 -50 -47 -80 -54
-83 -103 -172 -98 -177 2 -2 22 29 44 70 37 66 72 112 72 92 0 -5 -23 -50 -50
-101 -56 -104 -75 -148 -60 -139 6 3 23 32 38 63 34 69 77 138 91 147 17 10 2
-24 -51 -112 -55 -92 -102 -192 -95 -199 3 -3 24 31 47 75 48 88 85 139 95
130 3 -4 -7 -33 -23 -65 -16 -33 -33 -70 -37 -84 -14 -44 20 -5 45 51 12 28
24 49 26 46 3 -3 -2 -20 -11 -37 -23 -45 -66 -160 -60 -160 3 0 10 10 15 23 8
20 9 20 10 2 0 -11 14 11 30 48 57 131 83 140 35 12 -14 -37 -24 -69 -22 -72
2 -2 15 25 27 59 25 68 47 102 36 56 -16 -70 -15 -79 3 -33 18 47 20 48 20 19
1 -17 -6 -48 -14 -67 -8 -20 -15 -49 -14 -64 1 -23 3 -20 15 17 l13 45 -4 -60
-4 -60 11 55 12 55 7 -40 c3 -22 7 -32 8 -22 2 37 21 4 21 -38 0 -66 18 -65
22 2 3 52 5 55 14 33 10 -22 13 -14 24 65 6 50 16 102 22 117 5 14 7 37 3 50
-6 21 -4 20 20 -7 23 -27 25 -27 14 -5 -7 14 -22 59 -35 100 -12 41 -25 84
-29 95 -3 11 9 -4 29 -34 40 -61 52 -74 42 -47 -6 17 -31 124 -51 216 -5 24
-5 24 4 3 14 -32 22 -29 11 5 -5 15 -18 85 -30 155 -11 70 -27 144 -35 164 -8
20 -13 38 -11 41 6 5 46 -58 46 -72 0 -5 2 -7 5 -5 2 3 -7 49 -21 103 -13 55
-23 101 -20 103 3 3 14 -12 26 -34 12 -21 18 -29 14 -18 -3 11 -7 32 -9 47 -1
16 -9 36 -17 45 -27 32 -33 49 -10 29 12 -11 22 -14 22 -8 0 6 -4 13 -9 17 -5
3 -24 24 -43 48 l-33 42 28 -18 c16 -10 30 -17 33 -15 5 6 -183 159 -218 179
-28 14 -28 16 -11 31 29 25 84 50 99 44 7 -3 34 -45 58 -93 25 -48 45 -81 46
-73 0 8 12 -5 27 -30 21 -34 28 -41 31 -27 3 15 8 12 28 -17 26 -38 48 -49 37
-18 -4 9 14 -5 40 -33 39 -42 45 -46 37 -22 -5 15 -28 61 -51 102 -22 41 -38
75 -35 75 2 0 19 -27 37 -60 40 -76 57 -78 24 -3 -17 37 -22 59 -15 63 6 4 8
15 5 26 -5 14 -3 13 7 -4 8 -12 24 -29 36 -37 12 -9 42 -55 67 -104 25 -48 52
-96 61 -107 15 -18 15 -17 10 11 -5 25 -2 22 19 -17 14 -27 27 -48 30 -48 5 0
-17 72 -39 125 -14 34 -14 37 -1 21 8 -11 15 -23 15 -28 0 -4 4 -8 10 -8 5 0
3 19 -4 45 -16 52 -13 57 9 18 l16 -28 -5 33 c-3 17 -4 32 -1 32 2 0 14 -18
26 -40 28 -49 45 -53 24 -5 -8 20 -11 33 -6 31 5 -3 14 -20 22 -37 11 -27 14
-29 19 -13 17 47 83 -220 101 -406 6 -59 7 -47 5 60 -3 171 10 138 28 -71 l14
-154 -2 212 c0 117 2 209 6 205 12 -13 36 -156 43 -257 4 -55 10 -104 13 -109
11 -19 21 32 21 117 1 48 5 87 10 87 5 0 14 -44 22 -97 l13 -98 11 60 c10 57
11 58 18 27 4 -18 11 -31 17 -27 10 6 12 -1 30 -106 12 -65 30 -112 30 -78 0
9 7 20 16 23 10 4 13 13 9 28 -3 13 4 5 16 -17 12 -22 25 -42 30 -45 5 -3 17
-26 28 -52 12 -25 28 -51 36 -58 16 -13 21 -1 7 16 -5 5 -25 57 -45 115 -73
215 -206 498 -275 585 -55 70 -148 137 -269 197 -68 33 -103 55 -103 66 1 14
2 14 11 -1 5 -10 16 -18 24 -18 7 0 16 8 18 18 4 15 6 14 12 -5 4 -12 13 -19
20 -17 8 3 19 -4 25 -16 6 -11 15 -18 21 -14 5 3 16 1 24 -6 9 -8 15 -8 20 0
9 15 24 3 39 -33 l14 -32 2 40 2 40 13 -30 13 -30 4 30 3 30 14 -40 c15 -46
37 -75 26 -35 -17 64 -17 65 -6 54 6 -5 18 -30 26 -55 13 -39 14 -40 11 -11
-4 44 10 28 34 -39 l19 -54 2 40 1 40 8 -33 c9 -39 20 -53 20 -26 0 16 2 17
10 4 5 -8 10 -10 10 -5 1 16 49 -78 50 -97 0 -10 4 -18 9 -18 6 0 5 15 -1 36
-13 49 -4 53 24 10 13 -20 29 -34 36 -31 7 3 15 -2 18 -10 4 -8 12 -15 18 -15
7 0 22 -14 35 -31 13 -17 25 -28 28 -26 9 10 -174 242 -239 302 -81 75 -154
119 -260 156 -46 15 -84 33 -86 39 -5 14 32 7 52 -9 13 -11 22 -11 41 -3 18 8
25 8 29 -1 3 -9 5 -8 5 1 1 8 6 10 14 5 26 -16 38 -12 31 10 -7 22 -6 22 15 3
11 -11 21 -27 21 -38 0 -10 4 -18 10 -18 5 0 6 7 3 17 -4 11 -3 14 5 9 7 -4
12 -13 12 -21 0 -8 5 -17 11 -21 8 -4 9 1 4 16 -10 32 11 17 31 -22 8 -16 18
-27 21 -24 3 3 1 11 -5 19 -6 7 -16 25 -21 40 -10 26 -9 27 10 16 11 -6 27
-27 36 -46 18 -44 44 -85 50 -79 3 2 -1 15 -8 28 -23 42 16 2 57 -60 21 -31
42 -61 47 -67 15 -18 -33 87 -55 119 -16 23 -9 19 32 -19 29 -27 61 -63 71
-80 11 -17 19 -23 19 -14 0 8 -4 19 -8 25 -5 5 -23 36 -42 69 l-32 60 37 -35
c20 -19 57 -62 82 -95 26 -33 43 -52 40 -42 -4 9 -10 25 -14 35 -6 15 -5 16
12 2 17 -13 16 -10 -3 24 -30 51 -22 56 17 9 17 -21 40 -49 52 -63 l21 -25
-16 27 c-25 43 -19 44 15 2 36 -45 45 -55 34 -34 -4 8 11 -3 35 -25 34 -32 40
-35 30 -15 l-13 25 23 -20 24 -20 -24 35 c-39 57 -128 138 -204 185 -74 45
-270 129 -438 185 l-96 33 5 36 c3 20 13 50 22 66 l16 30 3 -47 c2 -27 7 -48
13 -48 5 0 9 6 9 13 0 8 4 7 10 -3 8 -12 10 -12 10 5 1 14 9 5 24 -25 25 -47
66 -92 66 -71 0 6 -13 38 -30 71 -40 79 -38 99 3 31 31 -52 57 -75 57 -51 0 6
-16 36 -35 66 -46 71 -45 84 0 16 20 -28 40 -52 45 -52 14 0 13 4 -15 63 -14
29 -20 44 -13 33 37 -55 61 -77 69 -64 7 10 12 11 29 1 24 -15 33 -17 25 -3
-3 5 -8 25 -10 45 -7 53 16 45 66 -25 24 -33 48 -60 54 -60 5 0 4 5 -3 12 -19
19 -14 32 6 17 15 -13 16 -12 3 3 -7 10 -17 16 -21 13 -4 -3 -14 3 -21 13 -13
15 -12 16 4 3 12 -9 17 -10 17 -2 0 7 4 10 8 7 4 -2 8 11 8 29 0 29 -5 36 -29
45 -16 5 -33 7 -38 4 -5 -3 -9 -1 -9 5 0 14 -73 20 -400 31 -290 10 -295 10
-338 -12 -65 -31 -161 -125 -233 -229 -35 -50 -70 -98 -76 -107 -7 -10 8 25
33 77 25 52 63 118 85 147 21 29 39 56 39 60 0 18 77 98 145 151 78 61 96 84
45 58 -54 -28 -31 -8 35 31 35 21 63 40 61 42 -3 2 -14 -2 -26 -8 -12 -7 -20
-8 -16 -2 3 5 19 15 36 22 16 7 30 16 30 21 0 10 92 55 133 64 15 4 30 11 33
16 7 12 2 11 -80 -6 -38 -8 -71 -13 -73 -11 -3 2 31 12 74 21 124 28 138 36
53 31 -85 -5 -62 6 50 25 36 5 70 15 75 20 11 12 -36 5 -129 -18 -32 -8 -60
-12 -63 -10 -5 6 155 44 221 53 25 4 46 11 46 16 0 5 -12 7 -27 4 -16 -3 -57
-7 -93 -10 l-65 -5 65 14 c36 8 83 14 105 15 31 0 37 2 27 13 -12 11 -96 14
-172 5 -14 -2 -25 2 -25 7 0 6 7 9 15 8 19 -3 200 38 200 45 0 2 -17 2 -37 -1
-21 -3 -47 -2 -58 2 -15 6 -10 8 20 9 39 0 102 18 94 27 -3 2 -21 0 -42 -4
-23 -6 -35 -5 -31 1 3 5 -9 2 -28 -6 -18 -8 -78 -33 -133 -56 -109 -47 -158
-77 -148 -94 4 -6 0 -5 -9 2 -12 10 -19 8 -39 -11 -47 -45 -149 -160 -149
-168 0 -5 -5 -9 -12 -9 -6 0 -4 7 5 18 10 10 17 22 17 27 0 5 8 18 18 29 l17
20 -30 -18 -30 -19 19 21 c11 12 15 22 10 22 -5 1 9 16 31 35 22 18 36 37 32
41 -4 4 -22 -6 -39 -22 -21 -19 -18 -12 10 19 24 26 40 52 37 58 -4 5 -2 15 4
22 6 8 6 18 1 27 -5 8 -4 22 2 33 8 16 7 19 -5 14 -11 -4 -19 7 -30 41 -14 45
-15 46 -22 20 -6 -25 -16 -32 -37 -29 -4 0 -10 -8 -13 -19 -7 -23 -21 -26 -29
-7 -3 6 -3 -6 -1 -28 4 -39 4 -40 -5 -7 -6 17 -14 47 -19 65 l-9 32 -2 -40
c-1 -22 -4 -33 -7 -25 -2 8 -7 22 -10 30 -3 8 -11 -14 -17 -50 -7 -43 -16 -64
-24 -62 -13 2 -8 -36 9 -70 5 -9 9 -20 9 -25 -1 -19 -28 46 -40 95 -6 28 -16
52 -20 52 -8 0 10 -93 25 -132 4 -10 5 -18 2 -18 -3 0 -16 31 -28 70 -13 38
-24 68 -27 66 -2 -2 8 -50 22 -105 31 -122 32 -136 6 -93 -11 18 -20 41 -20
51 0 20 -61 184 -86 234 -21 39 -182 214 -218 237 -34 20 -136 62 -136 55z
m567 -387 c-3 -8 -6 -5 -6 6 -1 11 2 17 5 13 3 -3 4 -12 1 -19z m10 -40 c-3
-8 -6 -5 -6 6 -1 11 2 17 5 13 3 -3 4 -12 1 -19z m-38 -38 c0 -10 -3 -8 -9 5
-12 27 -12 43 0 25 5 -8 9 -22 9 -30z m380 37 c-2 -2 -20 -14 -39 -26 l-35
-23 30 26 c17 14 34 26 39 26 5 0 7 -1 5 -3z m-89 -197 c-8 -5 -19 -10 -25
-10 -5 0 -3 5 5 10 8 5 20 10 25 10 6 0 3 -5 -5 -10z m-682 -100 c39 -24 40
-28 5 -23 -20 2 -13 -4 23 -21 55 -25 80 -48 42 -38 -14 3 -19 2 -14 -6 11
-17 -9 -15 -24 3 -7 8 -26 15 -42 15 -26 0 -28 2 -18 15 10 12 7 15 -15 21
-20 5 -23 9 -13 15 9 6 6 9 -12 9 l-25 1 25 14 c32 18 29 18 68 -5z m72 -120
c0 -5 -2 -10 -4 -10 -3 0 -8 5 -11 10 -3 6 -1 10 4 10 6 0 11 -4 11 -10z m30
-40 c0 -5 -7 -7 -15 -4 -8 4 -12 10 -9 15 6 11 24 2 24 -11z m34 -49 c10 -11
15 -25 11 -31 -3 -6 7 -29 24 -51 20 -28 27 -45 20 -53 -5 -6 -17 -20 -25 -31
-15 -20 -15 -20 -11 2 3 14 -4 36 -18 57 -15 22 -20 37 -13 44 6 6 2 15 -12
25 -15 11 -18 17 -9 22 9 6 7 12 -6 22 -18 12 -18 13 2 13 11 0 28 -9 37 -19z
m792 -36 c-8 -22 -17 -61 -21 -87 -7 -45 -9 -48 -36 -48 -32 0 -34 6 -17 47
15 35 79 135 84 131 2 -2 -3 -22 -10 -43z m329 15 c10 -11 16 -20 13 -20 -3 0
-13 9 -23 20 -10 11 -16 20 -13 20 3 0 13 -9 23 -20z m46 -12 c22 -28 25 -45
3 -28 -17 15 -38 50 -28 50 3 0 14 -10 25 -22z m-445 -53 c-13 -33 -26 -68
-29 -77 -4 -10 -15 -18 -26 -18 -18 0 -19 3 -11 26 20 52 77 140 86 132 2 -2
-7 -31 -20 -63z m-212 28 c-10 -16 -34 -55 -53 -88 -35 -59 -51 -78 -60 -70
-4 5 14 35 76 123 43 61 73 88 37 35z m-96 -79 l-43 -88 -55 -13 c-30 -8 -72
-25 -92 -38 -21 -14 -43 -25 -50 -25 -8 0 -5 5 5 11 9 6 15 14 12 18 -2 5 9
14 25 21 16 7 35 18 41 26 9 11 7 14 -12 15 -13 1 -6 5 16 8 35 5 40 9 37 31
-2 19 0 22 10 12 25 -25 46 -14 53 27 3 22 13 47 21 58 14 17 15 17 10 -7 -3
-14 -8 -45 -11 -70 -6 -50 -6 -50 42 59 13 30 26 52 29 49 3 -3 -14 -45 -38
-94z m122 16 c-22 -44 -44 -80 -48 -80 -4 0 -17 -3 -29 -6 -32 -9 -29 5 13 67
53 78 70 92 40 32 -15 -29 -22 -53 -16 -53 5 0 10 3 10 8 0 10 59 112 65 112
3 0 -13 -36 -35 -80z m140 33 c-10 -21 -24 -50 -29 -65 -6 -16 -17 -28 -26
-28 -14 0 -14 4 1 33 18 34 62 97 69 97 3 0 -4 -17 -15 -37z m-99 -17 c-11
-20 -24 -50 -30 -67 -5 -16 -15 -29 -20 -29 -6 0 -11 2 -11 5 0 9 51 108 63
123 18 23 17 6 -2 -32z m32 -24 c-15 -34 -34 -62 -41 -62 -10 0 -10 5 -1 23
19 37 63 106 66 103 2 -1 -9 -30 -24 -64z m-854 -216 c-2 -2 -18 -7 -34 -10
l-30 -6 30 14 c26 12 46 14 34 2z m81 4 c11 -7 3 -10 -28 -10 -26 0 -41 4 -37
10 8 13 45 13 65 0z m-175 -29 c-3 -6 -14 -11 -23 -11 -13 0 -13 2 4 14 21 15
30 14 19 -3z m920 -11 c3 -5 1 -10 -4 -10 -6 0 -11 5 -11 10 0 6 2 10 4 10 3
0 8 -4 11 -10z m-1368 -212 c-2 -18 -4 -6 -4 27 0 33 2 48 4 33 2 -15 2 -42 0
-60z m1162 -142 c-3 -3 -11 5 -18 17 -13 21 -12 21 5 5 10 -10 16 -20 13 -22z
m-1042 -108 c-3 -7 -5 -2 -5 12 0 14 2 19 5 13 2 -7 2 -19 0 -25z m593 -362
c0 -2 -8 -10 -17 -17 -16 -13 -17 -12 -4 4 13 16 21 21 21 13z m225 -83 c-27
-47 -72 -108 -64 -88 9 22 62 121 72 133 23 28 18 0 -8 -45z m28 -361 c-14
-34 -28 -60 -30 -58 -2 2 8 31 23 65 15 34 28 60 30 58 2 -2 -8 -31 -23 -65z"/>
<path d="M1948 4623 c7 -3 16 -2 19 1 4 3 -2 6 -13 5 -11 0 -14 -3 -6 -6z"/>
<path d="M1998 4613 c7 -3 16 -2 19 1 4 3 -2 6 -13 5 -11 0 -14 -3 -6 -6z"/>
<path d="M2038 4603 c7 -3 16 -2 19 1 4 3 -2 6 -13 5 -11 0 -14 -3 -6 -6z"/>
<path d="M2028 4573 c6 -2 18 -2 25 0 6 3 1 5 -13 5 -14 0 -19 -2 -12 -5z"/>
<path d="M3100 4355 c-11 -13 -10 -14 4 -9 9 3 16 10 16 15 0 13 -6 11 -20 -6z"/>
<path d="M3611 3454 c0 -11 3 -14 6 -6 3 7 2 16 -1 19 -3 4 -6 -2 -5 -13z"/>
<path d="M1782 3250 c0 -19 2 -27 5 -17 2 9 2 25 0 35 -3 9 -5 1 -5 -18z"/>
</g>
</svg>
